{"title":"Mario Monicelli - Brancaleone Alle Crociate (1970)","uid":5735179,"size":1469706542,"categoryP":"other","categoryS":"other","magnet":"?xt=urn:btih:365aaa307eb1fc981e29a05dc15fa4366df39fde&amp;dn=Mario+Monicelli+-+Brancaleone+Alle+Crociate+%281970%29&amp;tr=udp%3A%2F%2Ftracker.openbittorrent.com%3A80&amp;tr=udp%3A%2F%2Fopen.demonii.com%3A1337&amp;tr=udp%3A%2F%2Ftracker.coppersurfer.tk%3A6969&amp;tr=udp%3A%2F%2Fexodus.desync.com%3A6969","seeders":4,"leechers":0,"uploader":"mfccorrea","files":5,"time":1280783019,"description":"The film starts when L'armata Brancaleone ends. Brancaleone da Norcia (again played by Vittorio Gassman) is a poor but prideful Middle Ages knight leading his bizarre army of underdogs. However, he loses in a battle all his &quot;warriors&quot; and therefore meets the Death's incarnation (a clear parody of Bergman's Seventh Seal). Having obtained more time to live, he form a new tattered band.\nWhen Brancaleone saves a new-born child, they set on to the Holy Sepulchre to bring him back to his father, Bohemund of Taranto, which is fighting in the Crusades. As in the first film, in his quest he lives a series of grotesque episodes, each a hilarious parody of Middle Ages stereotypes.\n\n   General\n      Complete name : Brancaleone Alle Crociate.avi\n      Format : AVI\n      Format/Info : Audio Video Interleave\n      File size : 1.37 GiB\n      Duration : 1h 59mn\n      Overall bit rate : 1 635 Kbps\n      Writing application : VirtualDubMod 1.5.10.2 (build 2540/release)\n      Writing library : VirtualDubMod build 2540/release\n   Video #0\n      ID : 0\n      Format : MPEG-4 Visual\n      Format profile : AdvancedSimple@L5\n      Format settings, BVOP : Yes\n      Format settings, QPel : No\n      Format settings, GMC : No warppoints\n      Format settings, Matrix : Custom\n      Codec ID : XVID\n      Codec ID/Hint : XviD\n      Duration : 1h 59mn\n      Bit rate : 1 497 Kbps\n      Width : 608 pixels\n      Height : 320 pixels\n      Display aspect ratio : 1.900\n      Frame rate : 25.000 fps\n      Resolution : 24 bits\n      Colorimetry : 4:2:0\n      Scan type : Progressive\n      Bits/(Pixel*Frame) : 0.308\n      Stream size : 1.25 GiB (92%)\n      Writing library : XviD 1.0.0 (UTC 2004-05-09)\n   Audio #1\n      ID : 1\n      Format : MPEG Audio\n      Format version : Version 1\n      Format profile : Layer 3\n      Codec ID : 55\n      Codec ID/Hint : MP3\n      Duration : 1h 59mn\n      Bit rate mode : Constant\n      Bit rate : 128 Kbps\n      Channel(s) : 2 channels\n      Sampling rate : 48.0 KHz\n      Resolution : 16 bits\n      Stream size : 110 MiB (8%)\n      Alignment : Aligned on interleaves\n      Interleave, duration : 40 ms (1.00 video frame)\n      Interleave, preload duration : 504 ms\n &lt;a href=&quot;\nhttp://www.imdb.com/title/tt0065489/&quot; rel=&quot;nofollow&quot; target=&quot;_NEW&quot;&gt;\nhttp://www.imdb.com/title/tt0065489/&lt;/a&gt;\n\nMix of Italian and dialects audio; Italian, English, Spanish and Portuguese subtitles\n\nThis same version was already posted at TNT Village, without the subtitles.\n\nMario Monicelli - Brancaleone Alle Crociate (1970)","torrent":{"xt":"urn:btih:365aaa307eb1fc981e29a05dc15fa4366df39fde","amp;dn":"Mario+Monicelli+-+Brancaleone+Alle+Crociate+%281970%29","amp;tr":["udp%3A%2F%2Ftracker.openbittorrent.com%3A80","udp%3A%2F%2Fopen.demonii.com%3A1337","udp%3A%2F%2Ftracker.coppersurfer.tk%3A6969","udp%3A%2F%2Fexodus.desync.com%3A6969"],"infoHash":"365aaa307eb1fc981e29a05dc15fa4366df39fde","infoHashBuffer":{"type":"Buffer","data":[54,90,170,48,126,177,252,152,30,41,160,93,193,95,164,54,109,243,159,222]},"announce":[],"urlList":[]}}